<svg width="473" height="439" viewBox="0 0 473 439" fill="none" xmlns="http://www.w3.org/2000/svg">
<path d="M421.188 219.593C419.034 214.508 413.166 212.131 408.08 214.284L306.787 257.176L322.384 294.01C324.537 299.095 330.406 301.472 335.492 299.319L436.785 256.427L421.188 219.593Z" fill="#001AFF"/>
<path d="M315.996 253.277C310.91 255.43 305.041 253.053 302.888 247.967L306.787 257.176L315.996 253.277Z" fill="#001AFF"/>
<path d="M277.162 161.567C272.076 163.72 266.207 161.343 264.054 156.258L267.953 165.466L277.162 161.567Z" fill="#001AFF"/>
<path d="M147.005 161.94C141.92 164.094 136.051 161.717 133.898 156.631L137.797 165.84L147.005 161.94Z" fill="#001AFF"/>
<path d="M185.998 254.025C180.912 256.178 175.044 253.801 172.89 248.716L176.789 257.924L185.998 254.025Z" fill="#001AFF"/>
<path d="M223.041 341.505C217.955 343.659 212.086 341.282 209.933 336.196L213.832 345.405L223.041 341.505Z" fill="#001AFF"/>
<path d="M93.0422 342.254C87.9566 344.408 82.088 342.031 79.9345 336.945L83.8337 346.153L93.0422 342.254Z" fill="#001AFF"/>
<path d="M55.9995 254.774C50.9138 256.927 45.0453 254.55 42.8918 249.464L46.791 258.673L55.9995 254.774Z" fill="#001AFF"/>
<path d="M17.0071 162.689C11.9214 164.842 6.05287 162.465 3.89934 157.38L7.79858 166.588L17.0071 162.689Z" fill="#001AFF"/>
<path d="M353.038 340.757C347.953 342.91 342.084 340.533 339.931 335.448L343.83 344.656L353.038 340.757Z" fill="#001AFF"/>
<path d="M297.578 261.075C302.664 258.922 308.532 261.299 310.686 266.384L306.787 257.176L297.578 261.075Z" fill="#001AFF"/>
<path d="M167.58 261.824C172.666 259.67 178.535 262.047 180.688 267.133L176.789 257.924L167.58 261.824Z" fill="#001AFF"/>
<path d="M128.588 169.739C133.674 167.585 139.542 169.963 141.696 175.048L137.796 165.84L128.588 169.739Z" fill="#001AFF"/>
<path d="M258.586 168.99C263.671 166.837 269.54 169.214 271.693 174.3L267.794 165.091L258.586 168.99Z" fill="#001AFF"/>
<path d="M204.624 349.304C209.709 347.15 215.578 349.528 217.731 354.613L213.832 345.405L204.624 349.304Z" fill="#001AFF"/>
<path d="M445.993 252.528C440.908 254.681 435.039 252.304 432.886 247.219L436.785 256.427L445.993 252.528Z" fill="#001AFF"/>
<path d="M407.001 160.443C401.915 162.597 396.047 160.22 393.893 155.134L397.792 164.343L407.001 160.443Z" fill="#001AFF"/>
<path d="M291.19 220.342C289.036 215.256 283.168 212.879 278.082 215.033L176.789 257.924L192.386 294.758C194.539 299.844 200.408 302.221 205.494 300.068L306.787 257.176L291.19 220.342Z" fill="#001AFF"/>
<path d="M161.192 221.091C159.038 216.005 153.17 213.628 148.084 215.781L46.7911 258.673L62.388 295.507C64.5415 300.593 70.4101 302.97 75.4958 300.816L176.789 257.924L161.192 221.091Z" fill="#001AFF"/>
<path d="M382.195 127.509C380.042 122.423 374.173 120.046 369.087 122.2L267.794 165.091L283.391 201.925C285.545 207.011 291.413 209.388 296.499 207.234L397.792 164.343L382.195 127.509Z" fill="#001AFF"/>
<path d="M122.2 129.006C120.046 123.92 114.178 121.543 109.092 123.697L7.79865 166.588L23.3956 203.422C25.5491 208.508 31.4176 210.885 36.5033 208.731L137.796 165.84L122.2 129.006Z" fill="#001AFF"/>
<path d="M252.197 128.257C250.044 123.172 244.175 120.795 239.09 122.948L137.796 165.84L153.393 202.674C155.547 207.759 161.415 210.136 166.501 207.983L267.794 165.091L252.197 128.257Z" fill="#001AFF"/>
<path d="M328.233 307.822C326.079 302.737 320.211 300.36 315.125 302.513L213.832 345.405L229.429 382.239C231.583 387.324 237.451 389.701 242.537 387.548L343.83 344.656L328.233 307.822Z" fill="#001AFF"/>
<path d="M198.235 308.571C196.081 303.485 190.213 301.108 185.127 303.262L83.8338 346.153L99.4308 382.987C101.584 388.073 107.453 390.45 112.538 388.297L213.832 345.405L198.235 308.571Z" fill="#001AFF"/>
</svg>
